<?xml version="1.0" encoding="iso-8859-1"?>
<!-- Generator: Adobe Illustrator 19.0.0, SVG Export Plug-In . SVG Version: 6.00 Build 0)  -->
<svg version="1.1" id="Capa_1" xmlns="http://www.w3.org/2000/svg" xmlns:xlink="http://www.w3.org/1999/xlink" x="0px" y="0px"
	 viewBox="0 0 496.485 496.485" style="enable-background:new 0 0 496.485 496.485;" xml:space="preserve">
<polygon style="fill:#E1E6E9;" points="407.273,454.594 89.212,454.594 119.467,488.727 377.018,488.727 "/>
<path style="fill:#193651;" d="M377.018,496.485H119.467c-2.327,0-4.655-0.776-5.43-2.327l-30.255-34.133
	c-2.327-2.327-2.327-5.43-1.552-8.533c1.552-3.103,3.879-4.655,6.982-4.655h318.061c3.103,0,6.206,1.552,6.982,4.655
	c1.552,3.103,0.776,6.206-1.552,8.533l-30.255,34.133C381.673,495.709,379.345,496.485,377.018,496.485z M122.57,480.97h250.57
	l16.291-18.618H106.279L122.57,480.97z"/>
<polygon style="fill:#CFD0D1;" points="163.685,454.594 332.8,454.594 295.564,404.17 200.921,404.17 "/>
<path style="fill:#193651;" d="M332.8,462.352H163.685c-3.103,0-5.43-1.552-6.982-3.879c-1.552-2.327-0.776-5.43,0.776-7.758
	l37.236-50.424c1.552-2.327,3.879-3.103,6.206-3.103h94.642c2.327,0,4.655,1.552,6.206,3.103l37.236,50.424
	c1.552,2.327,2.327,5.43,0.776,7.758C338.23,460.8,335.903,462.352,332.8,462.352z M179.2,446.836h138.085l-25.6-34.909H204.8
	L179.2,446.836z"/>
<path style="fill:#2EA2DB;" d="M449.939,7.758H46.545c-21.721,0-38.788,17.067-38.788,38.788v294.012h480.97V46.545
	C488.727,24.824,471.661,7.758,449.939,7.758z"/>
<path style="fill:#193651;" d="M488.727,348.315H7.758c-4.655,0-7.758-3.103-7.758-7.758V46.545C0,20.945,20.945,0,46.545,0h403.394
	c25.6,0,46.545,20.945,46.545,46.545v294.012C496.485,344.436,493.382,348.315,488.727,348.315z M15.515,332.8H480.97V46.545
	c0-17.067-13.964-31.03-31.03-31.03H46.545c-17.067,0-31.03,13.964-31.03,31.03V332.8z"/>
<g>
	<path style="fill:#FFFFFF;" d="M38.788,309.527V46.545c0-4.655,3.103-7.758,7.758-7.758h403.394c4.655,0,7.758,3.103,7.758,7.758
		v262.982H38.788z"/>
	<path style="fill:#FFFFFF;" d="M7.758,340.558v24.824c0,21.721,17.067,38.788,38.788,38.788h403.394
		c21.721,0,38.788-17.067,38.788-38.788v-24.824H7.758z"/>
</g>
<path style="fill:#193651;" d="M449.939,411.927H46.545C20.945,411.927,0,390.982,0,365.382v-24.824
	c0-4.655,3.103-7.758,7.758-7.758h480.97c4.655,0,7.758,3.103,7.758,7.758v24.824C496.485,390.982,475.539,411.927,449.939,411.927z
	 M15.515,348.315v17.067c0,17.067,13.964,31.03,31.03,31.03h403.394c17.067,0,31.03-13.964,31.03-31.03v-17.067H15.515z"/>
<rect x="292.461" y="365.382" style="fill:#193651;" width="15.515" height="15.515"/>
<rect x="240.485" y="365.382" style="fill:#193651;" width="15.515" height="15.515"/>
<rect x="188.509" y="365.382" style="fill:#193651;" width="15.515" height="15.515"/>
<path style="fill:#FDBF5E;" d="M95.418,124.121v25.6c0,20.945,17.067,38.012,38.012,38.012l0,0
	c20.945,0,38.012-17.067,38.012-38.012v-32.582L95.418,124.121z"/>
<path style="fill:#F16051;" d="M169.115,93.867h-43.442c-16.291,0-30.255,13.188-30.255,30.255h73.697
	c8.533,0,14.739-6.982,14.739-14.739C184.63,100.848,177.648,93.867,169.115,93.867z"/>
<path style="fill:#4FBF9F;" d="M174.545,191.612c-10.861,10.085-24.824,16.291-41.115,16.291s-30.255-6.206-41.115-16.291
	c-18.618,13.188-31.03,34.133-31.03,58.958v34.909H204.8V250.57C205.576,226.521,193.164,204.8,174.545,191.612z"/>
<g>
	<rect x="83.782" y="242.812" style="fill:#193651;" width="15.515" height="15.515"/>
	<rect x="126.448" y="242.812" style="fill:#193651;" width="15.515" height="15.515"/>
	<rect x="168.339" y="242.812" style="fill:#193651;" width="15.515" height="15.515"/>
</g>
<path style="fill:#F16051;" d="M433.648,192.388v-35.685h-20.17c-1.552-6.206-3.879-12.412-6.982-17.842l13.964-13.964l-25.6-25.6
	l-13.964,13.964c-5.43-3.103-11.636-5.43-17.842-6.982v-20.17H327.37v20.17c-6.206,1.552-12.412,3.879-17.842,6.982l-13.964-13.964
	l-25.6,25.6l13.964,13.964c-3.103,5.43-5.43,11.636-6.982,17.842h-20.17v35.685h20.17c1.552,6.206,3.879,12.412,6.982,17.842
	l-13.964,13.964l25.6,25.6l13.964-13.964c5.43,3.103,11.636,5.43,17.842,6.982v20.17h35.685v-20.17
	c6.206-1.552,12.412-3.879,17.842-6.982l13.964,13.964l25.6-25.6l-13.964-14.739c3.103-5.43,5.43-11.636,6.982-17.842h20.17V192.388
	z"/>
<circle style="fill:#FFFFFF;" cx="345.212" cy="173.77" r="38.012"/>
<g>
</g>
<g>
</g>
<g>
</g>
<g>
</g>
<g>
</g>
<g>
</g>
<g>
</g>
<g>
</g>
<g>
</g>
<g>
</g>
<g>
</g>
<g>
</g>
<g>
</g>
<g>
</g>
<g>
</g>
</svg>
